<svg width="532" height="46" viewBox="0 0 532 46" fill="none" xmlns="http://www.w3.org/2000/svg">
<path d="M439.35 21.04C438.67 17.59 435.64 15 432 15C429.11 15 426.6 16.64 425.35 19.04C422.34 19.36 420 21.91 420 25C420 28.31 422.69 31 426 31H439C441.76 31 444 28.76 444 26C444 23.36 441.95 21.22 439.35 21.04ZM439 29H426C423.79 29 422 27.21 422 25C422 22.95 423.53 21.24 425.56 21.03L426.63 20.92L427.13 19.97C428.08 18.14 429.94 17 432 17C434.62 17 436.88 18.86 437.39 21.43L437.69 22.93L439.22 23.04C440.78 23.14 442 24.45 442 26C442 27.65 440.65 29 439 29V29ZM433.45 21H430.55V24H428L432 28L436 24H433.45V21Z" fill="#9F2241"/>
<g clip-path="url(#clip0_100_2675)">
<path d="M7.88867 21.0233C7.88867 20.9651 7.82454 20.907 7.69627 20.907C7.63214 20.907 7.56801 20.907 7.50388 20.9651C7.37562 21.0233 7.31149 21.0814 7.31149 21.1977C7.18322 21.5465 7.50388 22.2442 8.01693 23C8.08106 22.0698 8.08106 21.314 7.88867 21.0233Z" fill="#9F2241"/>
<path d="M3.97594 29.8025C3.97594 29.8607 3.91181 30.0351 4.23246 30.1514C4.36073 30.2095 4.55312 30.0932 4.87378 29.8025C5.19444 29.4537 5.51509 28.9886 5.83575 28.4653C4.80965 28.9304 4.1042 29.4537 3.97594 29.8025Z" fill="#9F2241"/>
<path d="M7.11914 27.3606C8.01698 27.0699 9.04308 26.7792 10.0051 26.6048C9.55613 26.1397 8.85069 25.3257 8.20937 24.4536C7.88872 25.442 7.50393 26.4885 7.11914 27.3606Z" fill="#9F2241"/>
<path d="M13.1466 27.07C12.5694 26.9537 11.9281 26.9537 11.2227 27.0118C12.2488 27.8839 13.1466 28.0002 13.6596 27.8258C13.852 27.7676 13.9803 27.5932 13.9803 27.4769C13.9803 27.3607 13.7238 27.1862 13.1466 27.07Z" fill="#9F2241"/>
<path d="M10.3893 18.8722C9.17079 17.7675 9.49145 15.3838 9.04253 13.0582C6.66967 13.0582 4.2968 12.8838 1.98807 13.1745C1.2185 13.2327 0.0641314 14.3954 0.0641314 15.0931C-0.0641314 20.3257 0.0641314 25.6745 0 30.9652C0 32.4768 0.577183 33.0582 2.2446 33.0001C6.28488 32.942 10.3893 33.0582 14.4296 32.8838C15.135 32.8838 16.4818 31.9536 16.4818 31.4303C16.6742 27.535 16.5459 23.5815 16.5459 19.6861C14.173 19.4536 11.4795 19.8606 10.3893 18.8722ZM13.9165 28.4071C13.1469 28.6978 11.8002 28.5815 10.4534 27.1861C9.17079 27.3606 7.88816 27.7675 6.7338 28.1745C6.28488 29.1048 5.77183 29.8606 5.32291 30.2675C4.93812 30.6745 4.55333 30.7908 4.2968 30.7908C4.16854 30.7908 4.04028 30.7327 3.91202 30.7327C3.14244 30.3838 3.2707 29.8606 3.33483 29.628C3.59136 28.9885 4.74572 28.2908 6.22075 27.7094C6.79793 26.4885 7.37511 25.0931 7.69577 23.8722C6.92619 22.7675 6.41314 21.721 6.60554 21.0815C6.66967 20.7908 6.92619 20.5582 7.24685 20.5001C7.9523 20.2675 8.27295 20.6164 8.40122 20.7908C8.786 21.3141 8.72187 22.4768 8.40122 23.8141C9.10666 24.8024 10.0045 25.8489 10.7099 26.6048C11.6719 26.4885 12.5698 26.4885 13.2752 26.6048C14.4296 26.7792 14.5578 27.3024 14.622 27.535C14.6861 27.8257 14.3654 28.1745 13.9165 28.4071Z" fill="#9F2241"/>
<path d="M11.6074 13.1165C11.6074 14.9769 11.6074 16.3141 11.6074 17.7095C13.2107 17.7095 14.6216 17.7095 16.9303 17.7095C14.814 15.849 13.4031 14.6281 11.6074 13.1165Z" fill="#9F2241"/>
</g>
<path d="M27.411 30V18.1H32.562C33.6273 18.1 34.5453 18.2757 35.316 18.627C36.0867 18.967 36.6817 19.46 37.101 20.106C37.5203 20.752 37.73 21.5227 37.73 22.418C37.73 23.302 37.5203 24.067 37.101 24.713C36.6817 25.359 36.0867 25.8577 35.316 26.209C34.5453 26.549 33.6273 26.719 32.562 26.719H28.941L30.165 25.478V30H27.411ZM30.165 25.784L28.941 24.475H32.409C33.259 24.475 33.8937 24.2937 34.313 23.931C34.7323 23.5683 34.942 23.064 34.942 22.418C34.942 21.7607 34.7323 21.2507 34.313 20.888C33.8937 20.5253 33.259 20.344 32.409 20.344H28.941L30.165 19.035V25.784ZM39.6962 30V18.1H45.1022C46.3942 18.1 47.5332 18.3493 48.5192 18.848C49.5052 19.3353 50.2758 20.021 50.8312 20.905C51.3865 21.789 51.6642 22.8373 51.6642 24.05C51.6642 25.2513 51.3865 26.2997 50.8312 27.195C50.2758 28.079 49.5052 28.7703 48.5192 29.269C47.5332 29.7563 46.3942 30 45.1022 30H39.6962ZM42.4502 27.739H44.9662C45.7595 27.739 46.4452 27.5917 47.0232 27.297C47.6125 26.991 48.0658 26.5603 48.3832 26.005C48.7118 25.4497 48.8762 24.798 48.8762 24.05C48.8762 23.2907 48.7118 22.639 48.3832 22.095C48.0658 21.5397 47.6125 21.1147 47.0232 20.82C46.4452 20.514 45.7595 20.361 44.9662 20.361H42.4502V27.739ZM56.2911 23.455H62.0031V25.665H56.2911V23.455ZM56.4951 30H53.7411V18.1H62.7341V20.31H56.4951V30Z" fill="#9F2241"/>
<path d="M477 27.08C476.24 27.08 475.56 27.38 475.04 27.85L467.91 23.7C467.96 23.47 468 23.24 468 23C468 22.76 467.96 22.53 467.91 22.3L474.96 18.19C475.5 18.69 476.21 19 477 19C478.66 19 480 17.66 480 16C480 14.34 478.66 13 477 13C475.34 13 474 14.34 474 16C474 16.24 474.04 16.47 474.09 16.7L467.04 20.81C466.5 20.31 465.79 20 465 20C463.34 20 462 21.34 462 23C462 24.66 463.34 26 465 26C465.79 26 466.5 25.69 467.04 25.19L474.16 29.35C474.11 29.56 474.08 29.78 474.08 30C474.08 31.61 475.39 32.92 477 32.92C478.61 32.92 479.92 31.61 479.92 30C479.92 28.39 478.61 27.08 477 27.08ZM477 15C477.55 15 478 15.45 478 16C478 16.55 477.55 17 477 17C476.45 17 476 16.55 476 16C476 15.45 476.45 15 477 15ZM465 24C464.45 24 464 23.55 464 23C464 22.45 464.45 22 465 22C465.55 22 466 22.45 466 23C466 23.55 465.55 24 465 24ZM477 31.02C476.45 31.02 476 30.57 476 30.02C476 29.47 476.45 29.02 477 29.02C477.55 29.02 478 29.47 478 30.02C478 30.57 477.55 31.02 477 31.02Z" fill="#9F2241"/>
<rect x="401.5" y="0.5" width="129.931" height="45" rx="3.5" stroke="#9F2241"/>
<defs>
<clipPath id="clip0_100_2675">
<rect width="16.9307" height="20" fill="white" transform="translate(0 13)"/>
</clipPath>
</defs>
</svg>
