<svg width="28" height="28" viewBox="0 0 28 28" fill="none" xmlns="http://www.w3.org/2000/svg">
<path d="M17.6465 13.9999C17.6465 15.6945 16.2786 17.0624 14.584 17.0624C12.8894 17.0624 11.5215 15.6945 11.5215 13.9999C11.5215 12.3053 12.8894 10.9374 14.584 10.9374C16.2786 10.9374 17.6465 12.3053 17.6465 13.9999ZM14.584 5.83325C9.01023 5.83325 4.25315 9.22242 2.33398 13.9999C4.25315 18.7774 9.01023 22.1666 14.584 22.1666C20.1577 22.1666 24.9148 18.7774 26.834 13.9999C24.9148 9.22242 20.1577 5.83325 14.584 5.83325ZM14.584 19.1041C11.7665 19.1041 9.47982 16.8174 9.47982 13.9999C9.47982 11.1824 11.7665 8.89575 14.584 8.89575C17.4015 8.89575 19.6882 11.1824 19.6882 13.9999C19.6882 16.8174 17.4015 19.1041 14.584 19.1041Z" fill="#9F2241"/>
</svg>
