<svg width="74" height="25" viewBox="0 0 74 25" fill="none" xmlns="http://www.w3.org/2000/svg">
<g clip-path="url(#clip0_98_2513)">
<path d="M7.88867 8.02326C7.88867 7.96512 7.82454 7.90698 7.69627 7.90698C7.63214 7.90698 7.56801 7.90698 7.50388 7.96512C7.37562 8.02326 7.31149 8.0814 7.31149 8.19768C7.18322 8.54652 7.50388 9.24419 8.01693 10C8.08106 9.06977 8.08106 8.31396 7.88867 8.02326Z" fill="#9F2241"/>
<path d="M3.97594 16.8025C3.97594 16.8607 3.91181 17.0351 4.23246 17.1514C4.36073 17.2095 4.55312 17.0932 4.87378 16.8025C5.19444 16.4537 5.51509 15.9886 5.83575 15.4653C4.80965 15.9304 4.1042 16.4537 3.97594 16.8025Z" fill="#9F2241"/>
<path d="M7.11914 14.3606C8.01698 14.0699 9.04308 13.7792 10.0051 13.6048C9.55613 13.1397 8.85069 12.3257 8.20937 11.4536C7.88872 12.442 7.50393 13.4885 7.11914 14.3606Z" fill="#9F2241"/>
<path d="M13.1466 14.07C12.5694 13.9537 11.9281 13.9537 11.2227 14.0118C12.2488 14.8839 13.1466 15.0002 13.6596 14.8258C13.852 14.7676 13.9803 14.5932 13.9803 14.4769C13.9803 14.3607 13.7238 14.1862 13.1466 14.07Z" fill="#9F2241"/>
<path d="M10.3893 5.87219C9.17079 4.76754 9.49145 2.38382 9.04253 0.0582408C6.66967 0.0582408 4.2968 -0.116178 1.98807 0.17452C1.2185 0.232659 0.0641314 1.39545 0.0641314 2.09312C-0.0641314 7.32568 0.0641314 12.6745 0 17.9652C0 19.4768 0.577183 20.0582 2.2446 20.0001C6.28488 19.942 10.3893 20.0582 14.4296 19.8838C15.135 19.8838 16.4818 18.9536 16.4818 18.4303C16.6742 14.535 16.5459 10.5815 16.5459 6.68615C14.173 6.45359 11.4795 6.86057 10.3893 5.87219ZM13.9165 15.4071C13.1469 15.6978 11.8002 15.5815 10.4534 14.1861C9.17079 14.3606 7.88816 14.7675 6.7338 15.1745C6.28488 16.1047 5.77183 16.8606 5.32291 17.2675C4.93812 17.6745 4.55333 17.7908 4.2968 17.7908C4.16854 17.7908 4.04028 17.7327 3.91202 17.7327C3.14244 17.3838 3.2707 16.8606 3.33483 16.628C3.59136 15.9885 4.74572 15.2908 6.22075 14.7094C6.79793 13.4885 7.37511 12.0931 7.69577 10.8722C6.92619 9.76754 6.41314 8.72103 6.60554 8.0815C6.66967 7.7908 6.92619 7.55824 7.24685 7.5001C7.9523 7.26754 8.27295 7.61638 8.40122 7.7908C8.786 8.31405 8.72187 9.47684 8.40122 10.8141C9.10666 11.8024 10.0045 12.8489 10.7099 13.6047C11.6719 13.4885 12.5698 13.4885 13.2752 13.6047C14.4296 13.7792 14.5578 14.3024 14.622 14.535C14.6861 14.8257 14.3654 15.1745 13.9165 15.4071Z" fill="#9F2241"/>
<path d="M11.6074 0.116455C11.6074 1.97692 11.6074 3.31413 11.6074 4.70948C13.2107 4.70948 14.6216 4.70948 16.9303 4.70948C14.814 2.84901 13.4031 1.62808 11.6074 0.116455Z" fill="#9F2241"/>
</g>
<path d="M27.411 17V5.1H32.562C33.6273 5.1 34.5453 5.27567 35.316 5.627C36.0867 5.967 36.6817 6.46 37.101 7.106C37.5203 7.752 37.73 8.52267 37.73 9.418C37.73 10.302 37.5203 11.067 37.101 11.713C36.6817 12.359 36.0867 12.8577 35.316 13.209C34.5453 13.549 33.6273 13.719 32.562 13.719H28.941L30.165 12.478V17H27.411ZM30.165 12.784L28.941 11.475H32.409C33.259 11.475 33.8937 11.2937 34.313 10.931C34.7323 10.5683 34.942 10.064 34.942 9.418C34.942 8.76067 34.7323 8.25067 34.313 7.888C33.8937 7.52533 33.259 7.344 32.409 7.344H28.941L30.165 6.035V12.784ZM39.6962 17V5.1H45.1022C46.3942 5.1 47.5332 5.34933 48.5192 5.848C49.5052 6.33533 50.2758 7.021 50.8312 7.905C51.3865 8.789 51.6642 9.83733 51.6642 11.05C51.6642 12.2513 51.3865 13.2997 50.8312 14.195C50.2758 15.079 49.5052 15.7703 48.5192 16.269C47.5332 16.7563 46.3942 17 45.1022 17H39.6962ZM42.4502 14.739H44.9662C45.7595 14.739 46.4452 14.5917 47.0232 14.297C47.6125 13.991 48.0658 13.5603 48.3832 13.005C48.7118 12.4497 48.8762 11.798 48.8762 11.05C48.8762 10.2907 48.7118 9.639 48.3832 9.095C48.0658 8.53967 47.6125 8.11467 47.0232 7.82C46.4452 7.514 45.7595 7.361 44.9662 7.361H42.4502V14.739ZM56.2911 10.455H62.0031V12.665H56.2911V10.455ZM56.4951 17H53.7411V5.1H62.7341V7.31H56.4951V17Z" fill="#9F2241"/>
<defs>
<clipPath id="clip0_98_2513">
<rect width="16.9307" height="20" fill="white"/>
</clipPath>
</defs>
</svg>
